<svg width="20" height="29" viewBox="0 0 20 29" fill="none" xmlns="http://www.w3.org/2000/svg">
<path fill-rule="evenodd" clip-rule="evenodd" d="M0.30127 28.9998L19.9638 28.9998L19.9638 10.5662C19.9638 5.13658 15.5622 0.734985 10.1325 0.734985C4.70287 0.734985 0.301268 5.13659 0.301269 10.5662L0.30127 28.9998ZM2.46028 11.6108C2.97032 15.3926 6.21092 18.3083 10.1325 18.3083C14.0541 18.3083 17.2947 15.3926 17.8048 11.6108L2.46028 11.6108ZM17.8048 9.52158C17.2947 5.73979 14.0541 2.82408 10.1325 2.82408C6.21092 2.82408 2.97032 5.73979 2.46028 9.52159L17.8048 9.52158ZM17.8747 16.626C16.075 18.9221 13.2761 20.3974 10.1325 20.3974C6.98901 20.3974 4.19008 18.9221 2.39041 16.626L2.39041 26.9106L17.8747 26.9106L17.8747 16.626Z" fill="black"/>
</svg>